<?xml version="1.0" encoding="UTF-8" standalone="no"?>
<svg width="110px" height="110px" viewBox="0 0 110 110" version="1.1" xmlns="http://www.w3.org/2000/svg" xmlns:xlink="http://www.w3.org/1999/xlink">
    <!-- Generator: Sketch 41 (35326) - http://www.bohemiancoding.com/sketch -->
    <title>checkmark-outlined-circular-button</title>
    <desc>Created with Sketch.</desc>
    <defs></defs>
    <g id="Page-1" stroke="none" stroke-width="1" fill="none" fill-rule="evenodd">
        <g id="checkmark-outlined-circular-button" fill="#FFCC00">
            <g id="Capa_1">
                <g id="Group">
                    <g id="circle_copy_4_7_">
                        <path d="M55,0 C24.6245313,0 0,24.6245313 0,55 C0,85.3754688 24.6245313,110 55,110 C85.3754688,110 110,85.3754688 110,55 C110,24.6245313 85.3754688,0 55,0 Z M55,106.5625 C26.52375,106.5625 3.4375,83.47625 3.4375,55.0017188 C3.4375,26.52375 26.52375,3.4375 55,3.4375 C83.47625,3.4375 106.5625,26.52375 106.5625,55.0017188 C106.5625,83.47625 83.47625,106.5625 55,106.5625 Z" id="Shape"></path>
                    </g>
                    <g id="check" transform="translate(31.937500, 38.812500)">
                        <polygon id="Shape" points="45.7345312 2.8190625 43.3042187 0.38875 16.1875 27.5071875 2.8190625 14.13875 0.38875 16.5707812 15.8059375 31.9845312 16.1875 31.6064062 16.5690625 31.9845312"></polygon>
                    </g>
                </g>
            </g>
        </g>
    </g>
</svg>