<?xml version="1.0" encoding="UTF-8" standalone="no"?>
<svg width="32px" height="32px" viewBox="0 0 32 32" version="1.1" xmlns="http://www.w3.org/2000/svg" xmlns:xlink="http://www.w3.org/1999/xlink">
    <!-- Generator: Sketch 3.8.3 (29802) - http://www.bohemiancoding.com/sketch -->
    <title>error</title>
    <desc>Created with Sketch.</desc>
    <defs></defs>
    <g id="Page-1" stroke="none" stroke-width="1" fill="none" fill-rule="evenodd">
        <g id="error" fill="#FFFFFF">
            <g id="Capa_1">
                <g id="Group">
                    <path d="M16,0 C7.17784615,0 0,7.17723077 0,16 C0,24.8227692 7.17784615,32 16,32 C24.8221538,32 32,24.8227692 32,16 C32,7.17723077 24.8221538,0 16,0 L16,0 Z M16,30.7692308 C7.85661538,30.7692308 1.23076923,24.1433846 1.23076923,16 C1.23076923,7.85661538 7.85661538,1.23076923 16,1.23076923 C24.1433846,1.23076923 30.7692308,7.85661538 30.7692308,16 C30.7692308,24.1433846 24.1433846,30.7692308 16,30.7692308 L16,30.7692308 Z" id="Shape"></path>
                    <path d="M21.9735385,10.0264615 C21.7329231,9.78584615 21.344,9.78584615 21.1033846,10.0264615 L16,15.1298462 L10.8966154,10.0264615 C10.656,9.78584615 10.2670769,9.78584615 10.0264615,10.0264615 C9.78584615,10.2670769 9.78584615,10.656 10.0264615,10.8966154 L15.1298462,16 L10.0264615,21.1033846 C9.78584615,21.344 9.78584615,21.7329231 10.0264615,21.9735385 C10.1464615,22.0935385 10.304,22.1538462 10.4615385,22.1538462 C10.6190769,22.1538462 10.7766154,22.0935385 10.8966154,21.9735385 L16,16.8701538 L21.1033846,21.9735385 C21.2233846,22.0935385 21.3809231,22.1538462 21.5384615,22.1538462 C21.696,22.1538462 21.8535385,22.0935385 21.9735385,21.9735385 C22.2141538,21.7329231 22.2141538,21.344 21.9735385,21.1033846 L16.8701538,16 L21.9735385,10.8966154 C22.2141538,10.656 22.2141538,10.2670769 21.9735385,10.0264615 L21.9735385,10.0264615 Z" id="Shape"></path>
                </g>
            </g>
        </g>
    </g>
</svg>